<?xml version="1.0" encoding="utf-8" standalone="no"?>
<!DOCTYPE svg PUBLIC "-//W3C//DTD SVG 1.1//EN"
  "http://www.w3.org/Graphics/SVG/1.1/DTD/svg11.dtd">
<svg xmlns:xlink="http://www.w3.org/1999/xlink" width="504pt" height="360pt" viewBox="0 0 504 360" xmlns="http://www.w3.org/2000/svg" version="1.1">
 <metadata>
  <rdf:RDF xmlns:dc="http://purl.org/dc/elements/1.1/" xmlns:cc="http://creativecommons.org/ns#" xmlns:rdf="http://www.w3.org/1999/02/22-rdf-syntax-ns#">
   <cc:Work>
    <dc:type rdf:resource="http://purl.org/dc/dcmitype/StillImage"/>
    <dc:date>2025-10-03T13:45:01.764465</dc:date>
    <dc:format>image/svg+xml</dc:format>
    <dc:creator>
     <cc:Agent>
      <dc:title>Matplotlib v3.10.3, https://matplotlib.org/</dc:title>
     </cc:Agent>
    </dc:creator>
   </cc:Work>
  </rdf:RDF>
 </metadata>
 <defs>
  <style type="text/css">*{stroke-linejoin: round; stroke-linecap: butt}</style>
 </defs>
 <g id="figure_1">
  <g id="patch_1">
   <path d="M 0 360 
L 504 360 
L 504 0 
L 0 0 
z
" style="fill: #ffffff"/>
  </g>
  <g id="axes_1">
   <g id="patch_2">
    <path d="M 50.87 318.04 
L 493.2 318.04 
L 493.2 10.8 
L 50.87 10.8 
z
" style="fill: #ffffff"/>
   </g>
   <g id="PathCollection_1">
    <defs>
     <path id="mda2a6f3e85" d="M 0 2.738613 
C 0.726289 2.738613 1.422928 2.450055 1.936492 1.936492 
C 2.450055 1.422928 2.738613 0.726289 2.738613 0 
C 2.738613 -0.726289 2.450055 -1.422928 1.936492 -1.936492 
C 1.422928 -2.450055 0.726289 -2.738613 0 -2.738613 
C -0.726289 -2.738613 -1.422928 -2.450055 -1.936492 -1.936492 
C -2.450055 -1.422928 -2.738613 -0.726289 -2.738613 0 
C -2.738613 0.726289 -2.450055 1.422928 -1.936492 1.936492 
C -1.422928 2.450055 -0.726289 2.738613 0 2.738613 
z
" style="stroke: #000000"/>
    </defs>
    <g clip-path="url(#p663237b16f)">
     <use xlink:href="#mda2a6f3e85" x="70.975909" y="304.074545" style="stroke: #000000"/>
     <use xlink:href="#mda2a6f3e85" x="80.78367" y="303.261375" style="stroke: #000000"/>
     <use xlink:href="#mda2a6f3e85" x="90.59143" y="302.478321" style="stroke: #000000"/>
     <use xlink:href="#mda2a6f3e85" x="100.399191" y="301.484446" style="stroke: #000000"/>
     <use xlink:href="#mda2a6f3e85" x="110.206951" y="299.617165" style="stroke: #000000"/>
     <use xlink:href="#mda2a6f3e85" x="120.014712" y="297.629414" style="stroke: #000000"/>
     <use xlink:href="#mda2a6f3e85" x="129.822472" y="295.22002" style="stroke: #000000"/>
     <use xlink:href="#mda2a6f3e85" x="139.630233" y="291.997454" style="stroke: #000000"/>
     <use xlink:href="#mda2a6f3e85" x="149.437993" y="287.058195" style="stroke: #000000"/>
     <use xlink:href="#mda2a6f3e85" x="159.245754" y="281.787644" style="stroke: #000000"/>
     <use xlink:href="#mda2a6f3e85" x="169.053514" y="274.740164" style="stroke: #000000"/>
     <use xlink:href="#mda2a6f3e85" x="178.861275" y="266.006108" style="stroke: #000000"/>
     <use xlink:href="#mda2a6f3e85" x="188.669035" y="256.669703" style="stroke: #000000"/>
     <use xlink:href="#mda2a6f3e85" x="198.476796" y="245.827426" style="stroke: #000000"/>
     <use xlink:href="#mda2a6f3e85" x="208.284557" y="227.455791" style="stroke: #000000"/>
     <use xlink:href="#mda2a6f3e85" x="218.092317" y="211.493551" style="stroke: #000000"/>
     <use xlink:href="#mda2a6f3e85" x="227.900078" y="189.507823" style="stroke: #000000"/>
     <use xlink:href="#mda2a6f3e85" x="232.803958" y="179.870244" style="stroke: #000000"/>
     <use xlink:href="#mda2a6f3e85" x="237.707838" y="158.486865" style="stroke: #000000"/>
     <use xlink:href="#mda2a6f3e85" x="242.611718" y="136.802312" style="stroke: #000000"/>
     <use xlink:href="#mda2a6f3e85" x="247.515599" y="129.272954" style="stroke: #000000"/>
     <use xlink:href="#mda2a6f3e85" x="252.419479" y="145.837543" style="stroke: #000000"/>
     <use xlink:href="#mda2a6f3e85" x="257.323359" y="150.053984" style="stroke: #000000"/>
     <use xlink:href="#mda2a6f3e85" x="262.227239" y="143.126974" style="stroke: #000000"/>
     <use xlink:href="#mda2a6f3e85" x="267.13112" y="137.404661" style="stroke: #000000"/>
     <use xlink:href="#mda2a6f3e85" x="272.035" y="131.08" style="stroke: #000000"/>
     <use xlink:href="#mda2a6f3e85" x="276.93888" y="112.708364" style="stroke: #000000"/>
     <use xlink:href="#mda2a6f3e85" x="281.842761" y="85.602673" style="stroke: #000000"/>
     <use xlink:href="#mda2a6f3e85" x="286.746641" y="36.511254" style="stroke: #000000"/>
     <use xlink:href="#mda2a6f3e85" x="291.650521" y="24.765455" style="stroke: #000000"/>
     <use xlink:href="#mda2a6f3e85" x="296.554401" y="56.388761" style="stroke: #000000"/>
     <use xlink:href="#mda2a6f3e85" x="301.458282" y="101.263739" style="stroke: #000000"/>
     <use xlink:href="#mda2a6f3e85" x="306.362162" y="143.729322" style="stroke: #000000"/>
     <use xlink:href="#mda2a6f3e85" x="311.266042" y="167.82327" style="stroke: #000000"/>
     <use xlink:href="#mda2a6f3e85" x="316.169922" y="171.738537" style="stroke: #000000"/>
     <use xlink:href="#mda2a6f3e85" x="321.073803" y="175.653803" style="stroke: #000000"/>
     <use xlink:href="#mda2a6f3e85" x="325.977683" y="182.580813" style="stroke: #000000"/>
     <use xlink:href="#mda2a6f3e85" x="335.785443" y="175.653803" style="stroke: #000000"/>
     <use xlink:href="#mda2a6f3e85" x="345.593204" y="192.519567" style="stroke: #000000"/>
     <use xlink:href="#mda2a6f3e85" x="355.400965" y="219.926432" style="stroke: #000000"/>
     <use xlink:href="#mda2a6f3e85" x="365.208725" y="239.803939" style="stroke: #000000"/>
     <use xlink:href="#mda2a6f3e85" x="375.016486" y="252.152088" style="stroke: #000000"/>
     <use xlink:href="#mda2a6f3e85" x="384.824246" y="262.69319" style="stroke: #000000"/>
     <use xlink:href="#mda2a6f3e85" x="394.632007" y="272.631943" style="stroke: #000000"/>
     <use xlink:href="#mda2a6f3e85" x="404.439767" y="280.311889" style="stroke: #000000"/>
     <use xlink:href="#mda2a6f3e85" x="414.247528" y="285.733028" style="stroke: #000000"/>
     <use xlink:href="#mda2a6f3e85" x="424.055288" y="290.612052" style="stroke: #000000"/>
     <use xlink:href="#mda2a6f3e85" x="433.863049" y="293.533443" style="stroke: #000000"/>
     <use xlink:href="#mda2a6f3e85" x="443.670809" y="296.996948" style="stroke: #000000"/>
     <use xlink:href="#mda2a6f3e85" x="453.47857" y="298.322115" style="stroke: #000000"/>
     <use xlink:href="#mda2a6f3e85" x="463.28633" y="300.61104" style="stroke: #000000"/>
     <use xlink:href="#mda2a6f3e85" x="473.094091" y="302.207264" style="stroke: #000000"/>
    </g>
   </g>
   <g id="matplotlib.axis_1">
    <g id="xtick_1">
     <g id="line2d_1">
      <defs>
       <path id="mba3c7be65f" d="M 0 0 
L 0 3.5 
" style="stroke: #000000; stroke-width: 0.8"/>
      </defs>
      <g>
       <use xlink:href="#mba3c7be65f" x="70.975909" y="318.04" style="stroke: #000000; stroke-width: 0.8"/>
      </g>
     </g>
     <g id="text_1">
      <!-- 0 -->
      <g transform="translate(67.794659 332.638438) scale(0.1 -0.1)">
       <defs>
        <path id="DejaVuSans-30" d="M 2034 4250 
Q 1547 4250 1301 3770 
Q 1056 3291 1056 2328 
Q 1056 1369 1301 889 
Q 1547 409 2034 409 
Q 2525 409 2770 889 
Q 3016 1369 3016 2328 
Q 3016 3291 2770 3770 
Q 2525 4250 2034 4250 
z
M 2034 4750 
Q 2819 4750 3233 4129 
Q 3647 3509 3647 2328 
Q 3647 1150 3233 529 
Q 2819 -91 2034 -91 
Q 1250 -91 836 529 
Q 422 1150 422 2328 
Q 422 3509 836 4129 
Q 1250 4750 2034 4750 
z
" transform="scale(0.015625)"/>
       </defs>
       <use xlink:href="#DejaVuSans-30"/>
      </g>
     </g>
    </g>
    <g id="xtick_2">
     <g id="line2d_2">
      <g>
       <use xlink:href="#mba3c7be65f" x="149.437993" y="318.04" style="stroke: #000000; stroke-width: 0.8"/>
      </g>
     </g>
     <g id="text_2">
      <!-- 2 -->
      <g transform="translate(146.256743 332.638438) scale(0.1 -0.1)">
       <defs>
        <path id="DejaVuSans-32" d="M 1228 531 
L 3431 531 
L 3431 0 
L 469 0 
L 469 531 
Q 828 903 1448 1529 
Q 2069 2156 2228 2338 
Q 2531 2678 2651 2914 
Q 2772 3150 2772 3378 
Q 2772 3750 2511 3984 
Q 2250 4219 1831 4219 
Q 1534 4219 1204 4116 
Q 875 4013 500 3803 
L 500 4441 
Q 881 4594 1212 4672 
Q 1544 4750 1819 4750 
Q 2544 4750 2975 4387 
Q 3406 4025 3406 3419 
Q 3406 3131 3298 2873 
Q 3191 2616 2906 2266 
Q 2828 2175 2409 1742 
Q 1991 1309 1228 531 
z
" transform="scale(0.015625)"/>
       </defs>
       <use xlink:href="#DejaVuSans-32"/>
      </g>
     </g>
    </g>
    <g id="xtick_3">
     <g id="line2d_3">
      <g>
       <use xlink:href="#mba3c7be65f" x="227.900078" y="318.04" style="stroke: #000000; stroke-width: 0.8"/>
      </g>
     </g>
     <g id="text_3">
      <!-- 4 -->
      <g transform="translate(224.718828 332.638438) scale(0.1 -0.1)">
       <defs>
        <path id="DejaVuSans-34" d="M 2419 4116 
L 825 1625 
L 2419 1625 
L 2419 4116 
z
M 2253 4666 
L 3047 4666 
L 3047 1625 
L 3713 1625 
L 3713 1100 
L 3047 1100 
L 3047 0 
L 2419 0 
L 2419 1100 
L 313 1100 
L 313 1709 
L 2253 4666 
z
" transform="scale(0.015625)"/>
       </defs>
       <use xlink:href="#DejaVuSans-34"/>
      </g>
     </g>
    </g>
    <g id="xtick_4">
     <g id="line2d_4">
      <g>
       <use xlink:href="#mba3c7be65f" x="306.362162" y="318.04" style="stroke: #000000; stroke-width: 0.8"/>
      </g>
     </g>
     <g id="text_4">
      <!-- 6 -->
      <g transform="translate(303.180912 332.638438) scale(0.1 -0.1)">
       <defs>
        <path id="DejaVuSans-36" d="M 2113 2584 
Q 1688 2584 1439 2293 
Q 1191 2003 1191 1497 
Q 1191 994 1439 701 
Q 1688 409 2113 409 
Q 2538 409 2786 701 
Q 3034 994 3034 1497 
Q 3034 2003 2786 2293 
Q 2538 2584 2113 2584 
z
M 3366 4563 
L 3366 3988 
Q 3128 4100 2886 4159 
Q 2644 4219 2406 4219 
Q 1781 4219 1451 3797 
Q 1122 3375 1075 2522 
Q 1259 2794 1537 2939 
Q 1816 3084 2150 3084 
Q 2853 3084 3261 2657 
Q 3669 2231 3669 1497 
Q 3669 778 3244 343 
Q 2819 -91 2113 -91 
Q 1303 -91 875 529 
Q 447 1150 447 2328 
Q 447 3434 972 4092 
Q 1497 4750 2381 4750 
Q 2619 4750 2861 4703 
Q 3103 4656 3366 4563 
z
" transform="scale(0.015625)"/>
       </defs>
       <use xlink:href="#DejaVuSans-36"/>
      </g>
     </g>
    </g>
    <g id="xtick_5">
     <g id="line2d_5">
      <g>
       <use xlink:href="#mba3c7be65f" x="384.824246" y="318.04" style="stroke: #000000; stroke-width: 0.8"/>
      </g>
     </g>
     <g id="text_5">
      <!-- 8 -->
      <g transform="translate(381.642996 332.638438) scale(0.1 -0.1)">
       <defs>
        <path id="DejaVuSans-38" d="M 2034 2216 
Q 1584 2216 1326 1975 
Q 1069 1734 1069 1313 
Q 1069 891 1326 650 
Q 1584 409 2034 409 
Q 2484 409 2743 651 
Q 3003 894 3003 1313 
Q 3003 1734 2745 1975 
Q 2488 2216 2034 2216 
z
M 1403 2484 
Q 997 2584 770 2862 
Q 544 3141 544 3541 
Q 544 4100 942 4425 
Q 1341 4750 2034 4750 
Q 2731 4750 3128 4425 
Q 3525 4100 3525 3541 
Q 3525 3141 3298 2862 
Q 3072 2584 2669 2484 
Q 3125 2378 3379 2068 
Q 3634 1759 3634 1313 
Q 3634 634 3220 271 
Q 2806 -91 2034 -91 
Q 1263 -91 848 271 
Q 434 634 434 1313 
Q 434 1759 690 2068 
Q 947 2378 1403 2484 
z
M 1172 3481 
Q 1172 3119 1398 2916 
Q 1625 2713 2034 2713 
Q 2441 2713 2670 2916 
Q 2900 3119 2900 3481 
Q 2900 3844 2670 4047 
Q 2441 4250 2034 4250 
Q 1625 4250 1398 4047 
Q 1172 3844 1172 3481 
z
" transform="scale(0.015625)"/>
       </defs>
       <use xlink:href="#DejaVuSans-38"/>
      </g>
     </g>
    </g>
    <g id="xtick_6">
     <g id="line2d_6">
      <g>
       <use xlink:href="#mba3c7be65f" x="463.28633" y="318.04" style="stroke: #000000; stroke-width: 0.8"/>
      </g>
     </g>
     <g id="text_6">
      <!-- 10 -->
      <g transform="translate(456.92383 332.638438) scale(0.1 -0.1)">
       <defs>
        <path id="DejaVuSans-31" d="M 794 531 
L 1825 531 
L 1825 4091 
L 703 3866 
L 703 4441 
L 1819 4666 
L 2450 4666 
L 2450 531 
L 3481 531 
L 3481 0 
L 794 0 
L 794 531 
z
" transform="scale(0.015625)"/>
       </defs>
       <use xlink:href="#DejaVuSans-31"/>
       <use xlink:href="#DejaVuSans-30" transform="translate(63.623047 0)"/>
      </g>
     </g>
    </g>
    <g id="text_7">
     <!-- x -->
     <g transform="translate(269.075625 346.316563) scale(0.1 -0.1)">
      <defs>
       <path id="DejaVuSans-78" d="M 3513 3500 
L 2247 1797 
L 3578 0 
L 2900 0 
L 1881 1375 
L 863 0 
L 184 0 
L 1544 1831 
L 300 3500 
L 978 3500 
L 1906 2253 
L 2834 3500 
L 3513 3500 
z
" transform="scale(0.015625)"/>
      </defs>
      <use xlink:href="#DejaVuSans-78"/>
     </g>
    </g>
   </g>
   <g id="matplotlib.axis_2">
    <g id="ytick_1">
     <g id="line2d_7">
      <defs>
       <path id="m649f9f751a" d="M 0 0 
L -3.5 0 
" style="stroke: #000000; stroke-width: 0.8"/>
      </defs>
      <g>
       <use xlink:href="#m649f9f751a" x="50.87" y="307.266994" style="stroke: #000000; stroke-width: 0.8"/>
      </g>
     </g>
     <g id="text_8">
      <!-- 0 -->
      <g transform="translate(37.5075 311.066212) scale(0.1 -0.1)">
       <use xlink:href="#DejaVuSans-30"/>
      </g>
     </g>
    </g>
    <g id="ytick_2">
     <g id="line2d_8">
      <g>
       <use xlink:href="#m649f9f751a" x="50.87" y="247.032124" style="stroke: #000000; stroke-width: 0.8"/>
      </g>
     </g>
     <g id="text_9">
      <!-- 200 -->
      <g transform="translate(24.7825 250.831343) scale(0.1 -0.1)">
       <use xlink:href="#DejaVuSans-32"/>
       <use xlink:href="#DejaVuSans-30" transform="translate(63.623047 0)"/>
       <use xlink:href="#DejaVuSans-30" transform="translate(127.246094 0)"/>
      </g>
     </g>
    </g>
    <g id="ytick_3">
     <g id="line2d_9">
      <g>
       <use xlink:href="#m649f9f751a" x="50.87" y="186.797254" style="stroke: #000000; stroke-width: 0.8"/>
      </g>
     </g>
     <g id="text_10">
      <!-- 400 -->
      <g transform="translate(24.7825 190.596473) scale(0.1 -0.1)">
       <use xlink:href="#DejaVuSans-34"/>
       <use xlink:href="#DejaVuSans-30" transform="translate(63.623047 0)"/>
       <use xlink:href="#DejaVuSans-30" transform="translate(127.246094 0)"/>
      </g>
     </g>
    </g>
    <g id="ytick_4">
     <g id="line2d_10">
      <g>
       <use xlink:href="#m649f9f751a" x="50.87" y="126.562384" style="stroke: #000000; stroke-width: 0.8"/>
      </g>
     </g>
     <g id="text_11">
      <!-- 600 -->
      <g transform="translate(24.7825 130.361603) scale(0.1 -0.1)">
       <use xlink:href="#DejaVuSans-36"/>
       <use xlink:href="#DejaVuSans-30" transform="translate(63.623047 0)"/>
       <use xlink:href="#DejaVuSans-30" transform="translate(127.246094 0)"/>
      </g>
     </g>
    </g>
    <g id="ytick_5">
     <g id="line2d_11">
      <g>
       <use xlink:href="#m649f9f751a" x="50.87" y="66.327515" style="stroke: #000000; stroke-width: 0.8"/>
      </g>
     </g>
     <g id="text_12">
      <!-- 800 -->
      <g transform="translate(24.7825 70.126733) scale(0.1 -0.1)">
       <use xlink:href="#DejaVuSans-38"/>
       <use xlink:href="#DejaVuSans-30" transform="translate(63.623047 0)"/>
       <use xlink:href="#DejaVuSans-30" transform="translate(127.246094 0)"/>
      </g>
     </g>
    </g>
    <g id="text_13">
     <!-- y -->
     <g transform="translate(18.702813 167.379375) rotate(-90) scale(0.1 -0.1)">
      <defs>
       <path id="DejaVuSans-79" d="M 2059 -325 
Q 1816 -950 1584 -1140 
Q 1353 -1331 966 -1331 
L 506 -1331 
L 506 -850 
L 844 -850 
Q 1081 -850 1212 -737 
Q 1344 -625 1503 -206 
L 1606 56 
L 191 3500 
L 800 3500 
L 1894 763 
L 2988 3500 
L 3597 3500 
L 2059 -325 
z
" transform="scale(0.015625)"/>
      </defs>
      <use xlink:href="#DejaVuSans-79"/>
     </g>
    </g>
   </g>
   <g id="line2d_12">
    <path d="M 70.975909 296.192095 
L 95.814595 296.030795 
L 108.569596 295.749665 
L 117.968017 295.335138 
L 125.352491 294.800571 
L 131.394334 294.163453 
L 136.76486 293.394906 
L 141.464071 292.524833 
L 146.163282 291.428819 
L 150.191177 290.275526 
L 154.219072 288.891882 
L 158.246967 287.244098 
L 161.603546 285.643349 
L 164.960125 283.812706 
L 168.316704 281.730134 
L 171.673284 279.373496 
L 175.029863 276.72097 
L 178.386442 273.751513 
L 181.743021 270.445392 
L 185.0996 266.784758 
L 188.456179 262.754268 
L 191.812758 258.341731 
L 195.169338 253.53877 
L 198.525917 248.341485 
L 201.882496 242.751093 
L 205.239075 236.774527 
L 209.26697 229.111929 
L 213.294865 220.948168 
L 217.994076 210.858288 
L 223.364602 198.713345 
L 230.077761 182.914158 
L 242.832761 152.753282 
L 247.531972 142.24857 
L 251.559867 133.772378 
L 254.916446 127.187578 
L 258.273025 121.121142 
L 260.958289 116.690949 
L 263.643552 112.675065 
L 266.328815 109.105983 
L 268.342763 106.740143 
L 270.35671 104.653236 
L 272.370658 102.855089 
L 274.384605 101.354229 
L 276.398553 100.157814 
L 278.4125 99.271576 
L 280.426448 98.699777 
L 282.440395 98.445173 
L 284.454343 98.508993 
L 286.46829 98.89093 
L 288.482238 99.58914 
L 290.496185 100.60026 
L 292.510133 101.919435 
L 294.52408 103.540354 
L 296.538028 105.455304 
L 298.551975 107.65523 
L 300.565923 110.129802 
L 303.251186 113.836391 
L 305.936449 117.980334 
L 308.621713 122.528261 
L 311.978292 128.726235 
L 315.334871 135.424174 
L 319.362766 144.010802 
L 324.061977 154.608731 
L 330.775135 170.410158 
L 343.530136 200.573059 
L 348.900662 212.630367 
L 353.599873 222.621711 
L 357.627768 230.688613 
L 361.655663 238.246065 
L 365.012242 244.130748 
L 368.368822 249.627038 
L 371.725401 254.729427 
L 375.08198 259.437988 
L 378.438559 263.757754 
L 381.795138 267.69808 
L 385.151717 271.271977 
L 388.508296 274.495447 
L 391.864876 277.386848 
L 395.221455 279.966277 
L 398.578034 282.255013 
L 401.934613 284.274993 
L 405.291192 286.048365 
L 408.647771 287.597085 
L 412.675666 289.189136 
L 416.703561 290.523997 
L 420.731456 291.634991 
L 425.430667 292.689143 
L 430.129878 293.524569 
L 435.500404 294.261192 
L 441.542247 294.870617 
L 448.926721 295.380756 
L 457.653827 295.754051 
L 469.066196 296.013251 
L 473.094091 296.066506 
L 473.094091 296.066506 
" clip-path="url(#p663237b16f)" style="fill: none; stroke: #ff7f0e; stroke-width: 2; stroke-linecap: square"/>
   </g>
   <g id="patch_3">
    <path d="M 50.87 318.04 
L 50.87 10.8 
" style="fill: none; stroke: #000000; stroke-width: 0.8; stroke-linejoin: miter; stroke-linecap: square"/>
   </g>
   <g id="patch_4">
    <path d="M 493.2 318.04 
L 493.2 10.8 
" style="fill: none; stroke: #000000; stroke-width: 0.8; stroke-linejoin: miter; stroke-linecap: square"/>
   </g>
   <g id="patch_5">
    <path d="M 50.87 318.04 
L 493.2 318.04 
" style="fill: none; stroke: #000000; stroke-width: 0.8; stroke-linejoin: miter; stroke-linecap: square"/>
   </g>
   <g id="patch_6">
    <path d="M 50.87 10.8 
L 493.2 10.8 
" style="fill: none; stroke: #000000; stroke-width: 0.8; stroke-linejoin: miter; stroke-linecap: square"/>
   </g>
   <g id="PathCollection_2">
    <defs>
     <path id="mc80b512ae6" d="M 0 3.535534 
C 0.937635 3.535534 1.836992 3.163008 2.5 2.5 
C 3.163008 1.836992 3.535534 0.937635 3.535534 0 
C 3.535534 -0.937635 3.163008 -1.836992 2.5 -2.5 
C 1.836992 -3.163008 0.937635 -3.535534 0 -3.535534 
C -0.937635 -3.535534 -1.836992 -3.163008 -2.5 -2.5 
C -3.163008 -1.836992 -3.535534 -0.937635 -3.535534 0 
C -3.535534 0.937635 -3.163008 1.836992 -2.5 2.5 
C -1.836992 3.163008 -0.937635 3.535534 0 3.535534 
z
" style="stroke: #0000ff"/>
    </defs>
    <g clip-path="url(#p663237b16f)">
     <use xlink:href="#mc80b512ae6" x="70.975909" y="304.074545" style="fill: #0000ff; stroke: #0000ff"/>
     <use xlink:href="#mc80b512ae6" x="80.78367" y="303.261375" style="fill: #0000ff; stroke: #0000ff"/>
     <use xlink:href="#mc80b512ae6" x="90.59143" y="302.478321" style="fill: #0000ff; stroke: #0000ff"/>
     <use xlink:href="#mc80b512ae6" x="100.399191" y="301.484446" style="fill: #0000ff; stroke: #0000ff"/>
     <use xlink:href="#mc80b512ae6" x="110.206951" y="299.617165" style="fill: #0000ff; stroke: #0000ff"/>
     <use xlink:href="#mc80b512ae6" x="120.014712" y="297.629414" style="fill: #0000ff; stroke: #0000ff"/>
     <use xlink:href="#mc80b512ae6" x="129.822472" y="295.22002" style="fill: #0000ff; stroke: #0000ff"/>
     <use xlink:href="#mc80b512ae6" x="139.630233" y="291.997454" style="fill: #0000ff; stroke: #0000ff"/>
     <use xlink:href="#mc80b512ae6" x="149.437993" y="287.058195" style="fill: #0000ff; stroke: #0000ff"/>
     <use xlink:href="#mc80b512ae6" x="159.245754" y="281.787644" style="fill: #0000ff; stroke: #0000ff"/>
     <use xlink:href="#mc80b512ae6" x="169.053514" y="274.740164" style="fill: #0000ff; stroke: #0000ff"/>
     <use xlink:href="#mc80b512ae6" x="178.861275" y="266.006108" style="fill: #0000ff; stroke: #0000ff"/>
     <use xlink:href="#mc80b512ae6" x="188.669035" y="256.669703" style="fill: #0000ff; stroke: #0000ff"/>
     <use xlink:href="#mc80b512ae6" x="198.476796" y="245.827426" style="fill: #0000ff; stroke: #0000ff"/>
     <use xlink:href="#mc80b512ae6" x="208.284557" y="227.455791" style="fill: #0000ff; stroke: #0000ff"/>
     <use xlink:href="#mc80b512ae6" x="218.092317" y="211.493551" style="fill: #0000ff; stroke: #0000ff"/>
     <use xlink:href="#mc80b512ae6" x="227.900078" y="189.507823" style="fill: #0000ff; stroke: #0000ff"/>
     <use xlink:href="#mc80b512ae6" x="232.803958" y="179.870244" style="fill: #0000ff; stroke: #0000ff"/>
     <use xlink:href="#mc80b512ae6" x="237.707838" y="158.486865" style="fill: #0000ff; stroke: #0000ff"/>
     <use xlink:href="#mc80b512ae6" x="242.611718" y="136.802312" style="fill: #0000ff; stroke: #0000ff"/>
     <use xlink:href="#mc80b512ae6" x="247.515599" y="129.272954" style="fill: #0000ff; stroke: #0000ff"/>
     <use xlink:href="#mc80b512ae6" x="252.419479" y="145.837543" style="fill: #0000ff; stroke: #0000ff"/>
     <use xlink:href="#mc80b512ae6" x="257.323359" y="150.053984" style="fill: #0000ff; stroke: #0000ff"/>
     <use xlink:href="#mc80b512ae6" x="262.227239" y="143.126974" style="fill: #0000ff; stroke: #0000ff"/>
     <use xlink:href="#mc80b512ae6" x="267.13112" y="137.404661" style="fill: #0000ff; stroke: #0000ff"/>
     <use xlink:href="#mc80b512ae6" x="272.035" y="131.08" style="fill: #0000ff; stroke: #0000ff"/>
     <use xlink:href="#mc80b512ae6" x="276.93888" y="112.708364" style="fill: #0000ff; stroke: #0000ff"/>
     <use xlink:href="#mc80b512ae6" x="281.842761" y="85.602673" style="fill: #0000ff; stroke: #0000ff"/>
     <use xlink:href="#mc80b512ae6" x="286.746641" y="36.511254" style="fill: #0000ff; stroke: #0000ff"/>
     <use xlink:href="#mc80b512ae6" x="291.650521" y="24.765455" style="fill: #0000ff; stroke: #0000ff"/>
     <use xlink:href="#mc80b512ae6" x="296.554401" y="56.388761" style="fill: #0000ff; stroke: #0000ff"/>
     <use xlink:href="#mc80b512ae6" x="301.458282" y="101.263739" style="fill: #0000ff; stroke: #0000ff"/>
     <use xlink:href="#mc80b512ae6" x="306.362162" y="143.729322" style="fill: #0000ff; stroke: #0000ff"/>
     <use xlink:href="#mc80b512ae6" x="311.266042" y="167.82327" style="fill: #0000ff; stroke: #0000ff"/>
     <use xlink:href="#mc80b512ae6" x="316.169922" y="171.738537" style="fill: #0000ff; stroke: #0000ff"/>
     <use xlink:href="#mc80b512ae6" x="321.073803" y="175.653803" style="fill: #0000ff; stroke: #0000ff"/>
     <use xlink:href="#mc80b512ae6" x="325.977683" y="182.580813" style="fill: #0000ff; stroke: #0000ff"/>
     <use xlink:href="#mc80b512ae6" x="335.785443" y="175.653803" style="fill: #0000ff; stroke: #0000ff"/>
     <use xlink:href="#mc80b512ae6" x="345.593204" y="192.519567" style="fill: #0000ff; stroke: #0000ff"/>
     <use xlink:href="#mc80b512ae6" x="355.400965" y="219.926432" style="fill: #0000ff; stroke: #0000ff"/>
     <use xlink:href="#mc80b512ae6" x="365.208725" y="239.803939" style="fill: #0000ff; stroke: #0000ff"/>
     <use xlink:href="#mc80b512ae6" x="375.016486" y="252.152088" style="fill: #0000ff; stroke: #0000ff"/>
     <use xlink:href="#mc80b512ae6" x="384.824246" y="262.69319" style="fill: #0000ff; stroke: #0000ff"/>
     <use xlink:href="#mc80b512ae6" x="394.632007" y="272.631943" style="fill: #0000ff; stroke: #0000ff"/>
     <use xlink:href="#mc80b512ae6" x="404.439767" y="280.311889" style="fill: #0000ff; stroke: #0000ff"/>
     <use xlink:href="#mc80b512ae6" x="414.247528" y="285.733028" style="fill: #0000ff; stroke: #0000ff"/>
     <use xlink:href="#mc80b512ae6" x="424.055288" y="290.612052" style="fill: #0000ff; stroke: #0000ff"/>
     <use xlink:href="#mc80b512ae6" x="433.863049" y="293.533443" style="fill: #0000ff; stroke: #0000ff"/>
     <use xlink:href="#mc80b512ae6" x="443.670809" y="296.996948" style="fill: #0000ff; stroke: #0000ff"/>
     <use xlink:href="#mc80b512ae6" x="453.47857" y="298.322115" style="fill: #0000ff; stroke: #0000ff"/>
     <use xlink:href="#mc80b512ae6" x="463.28633" y="300.61104" style="fill: #0000ff; stroke: #0000ff"/>
     <use xlink:href="#mc80b512ae6" x="473.094091" y="302.207264" style="fill: #0000ff; stroke: #0000ff"/>
    </g>
   </g>
   <g id="text_14">
    <!-- Beam diameter = 12.99 ± 0.78 -->
    <g transform="translate(72.9865 33.760438) scale(0.1 -0.1)">
     <defs>
      <path id="DejaVuSans-42" d="M 1259 2228 
L 1259 519 
L 2272 519 
Q 2781 519 3026 730 
Q 3272 941 3272 1375 
Q 3272 1813 3026 2020 
Q 2781 2228 2272 2228 
L 1259 2228 
z
M 1259 4147 
L 1259 2741 
L 2194 2741 
Q 2656 2741 2882 2914 
Q 3109 3088 3109 3444 
Q 3109 3797 2882 3972 
Q 2656 4147 2194 4147 
L 1259 4147 
z
M 628 4666 
L 2241 4666 
Q 2963 4666 3353 4366 
Q 3744 4066 3744 3513 
Q 3744 3084 3544 2831 
Q 3344 2578 2956 2516 
Q 3422 2416 3680 2098 
Q 3938 1781 3938 1306 
Q 3938 681 3513 340 
Q 3088 0 2303 0 
L 628 0 
L 628 4666 
z
" transform="scale(0.015625)"/>
      <path id="DejaVuSans-65" d="M 3597 1894 
L 3597 1613 
L 953 1613 
Q 991 1019 1311 708 
Q 1631 397 2203 397 
Q 2534 397 2845 478 
Q 3156 559 3463 722 
L 3463 178 
Q 3153 47 2828 -22 
Q 2503 -91 2169 -91 
Q 1331 -91 842 396 
Q 353 884 353 1716 
Q 353 2575 817 3079 
Q 1281 3584 2069 3584 
Q 2775 3584 3186 3129 
Q 3597 2675 3597 1894 
z
M 3022 2063 
Q 3016 2534 2758 2815 
Q 2500 3097 2075 3097 
Q 1594 3097 1305 2825 
Q 1016 2553 972 2059 
L 3022 2063 
z
" transform="scale(0.015625)"/>
      <path id="DejaVuSans-61" d="M 2194 1759 
Q 1497 1759 1228 1600 
Q 959 1441 959 1056 
Q 959 750 1161 570 
Q 1363 391 1709 391 
Q 2188 391 2477 730 
Q 2766 1069 2766 1631 
L 2766 1759 
L 2194 1759 
z
M 3341 1997 
L 3341 0 
L 2766 0 
L 2766 531 
Q 2569 213 2275 61 
Q 1981 -91 1556 -91 
Q 1019 -91 701 211 
Q 384 513 384 1019 
Q 384 1609 779 1909 
Q 1175 2209 1959 2209 
L 2766 2209 
L 2766 2266 
Q 2766 2663 2505 2880 
Q 2244 3097 1772 3097 
Q 1472 3097 1187 3025 
Q 903 2953 641 2809 
L 641 3341 
Q 956 3463 1253 3523 
Q 1550 3584 1831 3584 
Q 2591 3584 2966 3190 
Q 3341 2797 3341 1997 
z
" transform="scale(0.015625)"/>
      <path id="DejaVuSans-6d" d="M 3328 2828 
Q 3544 3216 3844 3400 
Q 4144 3584 4550 3584 
Q 5097 3584 5394 3201 
Q 5691 2819 5691 2113 
L 5691 0 
L 5113 0 
L 5113 2094 
Q 5113 2597 4934 2840 
Q 4756 3084 4391 3084 
Q 3944 3084 3684 2787 
Q 3425 2491 3425 1978 
L 3425 0 
L 2847 0 
L 2847 2094 
Q 2847 2600 2669 2842 
Q 2491 3084 2119 3084 
Q 1678 3084 1418 2786 
Q 1159 2488 1159 1978 
L 1159 0 
L 581 0 
L 581 3500 
L 1159 3500 
L 1159 2956 
Q 1356 3278 1631 3431 
Q 1906 3584 2284 3584 
Q 2666 3584 2933 3390 
Q 3200 3197 3328 2828 
z
" transform="scale(0.015625)"/>
      <path id="DejaVuSans-20" transform="scale(0.015625)"/>
      <path id="DejaVuSans-64" d="M 2906 2969 
L 2906 4863 
L 3481 4863 
L 3481 0 
L 2906 0 
L 2906 525 
Q 2725 213 2448 61 
Q 2172 -91 1784 -91 
Q 1150 -91 751 415 
Q 353 922 353 1747 
Q 353 2572 751 3078 
Q 1150 3584 1784 3584 
Q 2172 3584 2448 3432 
Q 2725 3281 2906 2969 
z
M 947 1747 
Q 947 1113 1208 752 
Q 1469 391 1925 391 
Q 2381 391 2643 752 
Q 2906 1113 2906 1747 
Q 2906 2381 2643 2742 
Q 2381 3103 1925 3103 
Q 1469 3103 1208 2742 
Q 947 2381 947 1747 
z
" transform="scale(0.015625)"/>
      <path id="DejaVuSans-69" d="M 603 3500 
L 1178 3500 
L 1178 0 
L 603 0 
L 603 3500 
z
M 603 4863 
L 1178 4863 
L 1178 4134 
L 603 4134 
L 603 4863 
z
" transform="scale(0.015625)"/>
      <path id="DejaVuSans-74" d="M 1172 4494 
L 1172 3500 
L 2356 3500 
L 2356 3053 
L 1172 3053 
L 1172 1153 
Q 1172 725 1289 603 
Q 1406 481 1766 481 
L 2356 481 
L 2356 0 
L 1766 0 
Q 1100 0 847 248 
Q 594 497 594 1153 
L 594 3053 
L 172 3053 
L 172 3500 
L 594 3500 
L 594 4494 
L 1172 4494 
z
" transform="scale(0.015625)"/>
      <path id="DejaVuSans-72" d="M 2631 2963 
Q 2534 3019 2420 3045 
Q 2306 3072 2169 3072 
Q 1681 3072 1420 2755 
Q 1159 2438 1159 1844 
L 1159 0 
L 581 0 
L 581 3500 
L 1159 3500 
L 1159 2956 
Q 1341 3275 1631 3429 
Q 1922 3584 2338 3584 
Q 2397 3584 2469 3576 
Q 2541 3569 2628 3553 
L 2631 2963 
z
" transform="scale(0.015625)"/>
      <path id="DejaVuSans-3d" d="M 678 2906 
L 4684 2906 
L 4684 2381 
L 678 2381 
L 678 2906 
z
M 678 1631 
L 4684 1631 
L 4684 1100 
L 678 1100 
L 678 1631 
z
" transform="scale(0.015625)"/>
      <path id="DejaVuSans-2e" d="M 684 794 
L 1344 794 
L 1344 0 
L 684 0 
L 684 794 
z
" transform="scale(0.015625)"/>
      <path id="DejaVuSans-39" d="M 703 97 
L 703 672 
Q 941 559 1184 500 
Q 1428 441 1663 441 
Q 2288 441 2617 861 
Q 2947 1281 2994 2138 
Q 2813 1869 2534 1725 
Q 2256 1581 1919 1581 
Q 1219 1581 811 2004 
Q 403 2428 403 3163 
Q 403 3881 828 4315 
Q 1253 4750 1959 4750 
Q 2769 4750 3195 4129 
Q 3622 3509 3622 2328 
Q 3622 1225 3098 567 
Q 2575 -91 1691 -91 
Q 1453 -91 1209 -44 
Q 966 3 703 97 
z
M 1959 2075 
Q 2384 2075 2632 2365 
Q 2881 2656 2881 3163 
Q 2881 3666 2632 3958 
Q 2384 4250 1959 4250 
Q 1534 4250 1286 3958 
Q 1038 3666 1038 3163 
Q 1038 2656 1286 2365 
Q 1534 2075 1959 2075 
z
" transform="scale(0.015625)"/>
      <path id="DejaVuSans-b1" d="M 2944 4013 
L 2944 2803 
L 4684 2803 
L 4684 2272 
L 2944 2272 
L 2944 1063 
L 2419 1063 
L 2419 2272 
L 678 2272 
L 678 2803 
L 2419 2803 
L 2419 4013 
L 2944 4013 
z
M 678 531 
L 4684 531 
L 4684 0 
L 678 0 
L 678 531 
z
" transform="scale(0.015625)"/>
      <path id="DejaVuSans-37" d="M 525 4666 
L 3525 4666 
L 3525 4397 
L 1831 0 
L 1172 0 
L 2766 4134 
L 525 4134 
L 525 4666 
z
" transform="scale(0.015625)"/>
     </defs>
     <use xlink:href="#DejaVuSans-42"/>
     <use xlink:href="#DejaVuSans-65" transform="translate(68.603516 0)"/>
     <use xlink:href="#DejaVuSans-61" transform="translate(130.126953 0)"/>
     <use xlink:href="#DejaVuSans-6d" transform="translate(191.40625 0)"/>
     <use xlink:href="#DejaVuSans-20" transform="translate(288.818359 0)"/>
     <use xlink:href="#DejaVuSans-64" transform="translate(320.605469 0)"/>
     <use xlink:href="#DejaVuSans-69" transform="translate(384.082031 0)"/>
     <use xlink:href="#DejaVuSans-61" transform="translate(411.865234 0)"/>
     <use xlink:href="#DejaVuSans-6d" transform="translate(473.144531 0)"/>
     <use xlink:href="#DejaVuSans-65" transform="translate(570.556641 0)"/>
     <use xlink:href="#DejaVuSans-74" transform="translate(632.080078 0)"/>
     <use xlink:href="#DejaVuSans-65" transform="translate(671.289062 0)"/>
     <use xlink:href="#DejaVuSans-72" transform="translate(732.8125 0)"/>
     <use xlink:href="#DejaVuSans-20" transform="translate(773.925781 0)"/>
     <use xlink:href="#DejaVuSans-3d" transform="translate(805.712891 0)"/>
     <use xlink:href="#DejaVuSans-20" transform="translate(889.501953 0)"/>
     <use xlink:href="#DejaVuSans-31" transform="translate(921.289062 0)"/>
     <use xlink:href="#DejaVuSans-32" transform="translate(984.912109 0)"/>
     <use xlink:href="#DejaVuSans-2e" transform="translate(1048.535156 0)"/>
     <use xlink:href="#DejaVuSans-39" transform="translate(1080.322266 0)"/>
     <use xlink:href="#DejaVuSans-39" transform="translate(1143.945312 0)"/>
     <use xlink:href="#DejaVuSans-20" transform="translate(1207.568359 0)"/>
     <use xlink:href="#DejaVuSans-b1" transform="translate(1239.355469 0)"/>
     <use xlink:href="#DejaVuSans-20" transform="translate(1323.144531 0)"/>
     <use xlink:href="#DejaVuSans-30" transform="translate(1354.931641 0)"/>
     <use xlink:href="#DejaVuSans-2e" transform="translate(1418.554688 0)"/>
     <use xlink:href="#DejaVuSans-37" transform="translate(1450.341797 0)"/>
     <use xlink:href="#DejaVuSans-38" transform="translate(1513.964844 0)"/>
    </g>
   </g>
   <g id="legend_1">
    <g id="patch_7">
     <path d="M 335.979687 62.834375 
L 486.2 62.834375 
Q 488.2 62.834375 488.2 60.834375 
L 488.2 17.8 
Q 488.2 15.8 486.2 15.8 
L 335.979687 15.8 
Q 333.979687 15.8 333.979687 17.8 
L 333.979687 60.834375 
Q 333.979687 62.834375 335.979687 62.834375 
z
" style="fill: #ffffff; opacity: 0.8; stroke: #cccccc; stroke-linejoin: miter"/>
    </g>
    <g id="PathCollection_3">
     <g>
      <use xlink:href="#mda2a6f3e85" x="347.979687" y="24.773438" style="stroke: #000000"/>
     </g>
    </g>
    <g id="text_15">
     <!-- all data -->
     <g transform="translate(365.979687 27.398438) scale(0.1 -0.1)">
      <defs>
       <path id="DejaVuSans-6c" d="M 603 4863 
L 1178 4863 
L 1178 0 
L 603 0 
L 603 4863 
z
" transform="scale(0.015625)"/>
      </defs>
      <use xlink:href="#DejaVuSans-61"/>
      <use xlink:href="#DejaVuSans-6c" transform="translate(61.279297 0)"/>
      <use xlink:href="#DejaVuSans-6c" transform="translate(89.0625 0)"/>
      <use xlink:href="#DejaVuSans-20" transform="translate(116.845703 0)"/>
      <use xlink:href="#DejaVuSans-64" transform="translate(148.632812 0)"/>
      <use xlink:href="#DejaVuSans-61" transform="translate(212.109375 0)"/>
      <use xlink:href="#DejaVuSans-74" transform="translate(273.388672 0)"/>
      <use xlink:href="#DejaVuSans-61" transform="translate(312.597656 0)"/>
     </g>
    </g>
    <g id="PathCollection_4">
     <g>
      <use xlink:href="#mc80b512ae6" x="347.979687" y="39.451563" style="fill: #0000ff; stroke: #0000ff"/>
     </g>
    </g>
    <g id="text_16">
     <!-- fit data -->
     <g transform="translate(365.979687 42.076563) scale(0.1 -0.1)">
      <defs>
       <path id="DejaVuSans-66" d="M 2375 4863 
L 2375 4384 
L 1825 4384 
Q 1516 4384 1395 4259 
Q 1275 4134 1275 3809 
L 1275 3500 
L 2222 3500 
L 2222 3053 
L 1275 3053 
L 1275 0 
L 697 0 
L 697 3053 
L 147 3053 
L 147 3500 
L 697 3500 
L 697 3744 
Q 697 4328 969 4595 
Q 1241 4863 1831 4863 
L 2375 4863 
z
" transform="scale(0.015625)"/>
      </defs>
      <use xlink:href="#DejaVuSans-66"/>
      <use xlink:href="#DejaVuSans-69" transform="translate(35.205078 0)"/>
      <use xlink:href="#DejaVuSans-74" transform="translate(62.988281 0)"/>
      <use xlink:href="#DejaVuSans-20" transform="translate(102.197266 0)"/>
      <use xlink:href="#DejaVuSans-64" transform="translate(133.984375 0)"/>
      <use xlink:href="#DejaVuSans-61" transform="translate(197.460938 0)"/>
      <use xlink:href="#DejaVuSans-74" transform="translate(258.740234 0)"/>
      <use xlink:href="#DejaVuSans-61" transform="translate(297.949219 0)"/>
     </g>
    </g>
    <g id="line2d_13">
     <path d="M 337.979687 53.254687 
L 347.979687 53.254687 
L 357.979687 53.254687 
" style="fill: none; stroke: #ff7f0e; stroke-width: 2; stroke-linecap: square"/>
    </g>
    <g id="text_17">
     <!-- Gaussian fit (R²=0.932) -->
     <g transform="translate(365.979687 56.754687) scale(0.1 -0.1)">
      <defs>
       <path id="DejaVuSans-47" d="M 3809 666 
L 3809 1919 
L 2778 1919 
L 2778 2438 
L 4434 2438 
L 4434 434 
Q 4069 175 3628 42 
Q 3188 -91 2688 -91 
Q 1594 -91 976 548 
Q 359 1188 359 2328 
Q 359 3472 976 4111 
Q 1594 4750 2688 4750 
Q 3144 4750 3555 4637 
Q 3966 4525 4313 4306 
L 4313 3634 
Q 3963 3931 3569 4081 
Q 3175 4231 2741 4231 
Q 1884 4231 1454 3753 
Q 1025 3275 1025 2328 
Q 1025 1384 1454 906 
Q 1884 428 2741 428 
Q 3075 428 3337 486 
Q 3600 544 3809 666 
z
" transform="scale(0.015625)"/>
       <path id="DejaVuSans-75" d="M 544 1381 
L 544 3500 
L 1119 3500 
L 1119 1403 
Q 1119 906 1312 657 
Q 1506 409 1894 409 
Q 2359 409 2629 706 
Q 2900 1003 2900 1516 
L 2900 3500 
L 3475 3500 
L 3475 0 
L 2900 0 
L 2900 538 
Q 2691 219 2414 64 
Q 2138 -91 1772 -91 
Q 1169 -91 856 284 
Q 544 659 544 1381 
z
M 1991 3584 
L 1991 3584 
z
" transform="scale(0.015625)"/>
       <path id="DejaVuSans-73" d="M 2834 3397 
L 2834 2853 
Q 2591 2978 2328 3040 
Q 2066 3103 1784 3103 
Q 1356 3103 1142 2972 
Q 928 2841 928 2578 
Q 928 2378 1081 2264 
Q 1234 2150 1697 2047 
L 1894 2003 
Q 2506 1872 2764 1633 
Q 3022 1394 3022 966 
Q 3022 478 2636 193 
Q 2250 -91 1575 -91 
Q 1294 -91 989 -36 
Q 684 19 347 128 
L 347 722 
Q 666 556 975 473 
Q 1284 391 1588 391 
Q 1994 391 2212 530 
Q 2431 669 2431 922 
Q 2431 1156 2273 1281 
Q 2116 1406 1581 1522 
L 1381 1569 
Q 847 1681 609 1914 
Q 372 2147 372 2553 
Q 372 3047 722 3315 
Q 1072 3584 1716 3584 
Q 2034 3584 2315 3537 
Q 2597 3491 2834 3397 
z
" transform="scale(0.015625)"/>
       <path id="DejaVuSans-6e" d="M 3513 2113 
L 3513 0 
L 2938 0 
L 2938 2094 
Q 2938 2591 2744 2837 
Q 2550 3084 2163 3084 
Q 1697 3084 1428 2787 
Q 1159 2491 1159 1978 
L 1159 0 
L 581 0 
L 581 3500 
L 1159 3500 
L 1159 2956 
Q 1366 3272 1645 3428 
Q 1925 3584 2291 3584 
Q 2894 3584 3203 3211 
Q 3513 2838 3513 2113 
z
" transform="scale(0.015625)"/>
       <path id="DejaVuSans-28" d="M 1984 4856 
Q 1566 4138 1362 3434 
Q 1159 2731 1159 2009 
Q 1159 1288 1364 580 
Q 1569 -128 1984 -844 
L 1484 -844 
Q 1016 -109 783 600 
Q 550 1309 550 2009 
Q 550 2706 781 3412 
Q 1013 4119 1484 4856 
L 1984 4856 
z
" transform="scale(0.015625)"/>
       <path id="DejaVuSans-52" d="M 2841 2188 
Q 3044 2119 3236 1894 
Q 3428 1669 3622 1275 
L 4263 0 
L 3584 0 
L 2988 1197 
Q 2756 1666 2539 1819 
Q 2322 1972 1947 1972 
L 1259 1972 
L 1259 0 
L 628 0 
L 628 4666 
L 2053 4666 
Q 2853 4666 3247 4331 
Q 3641 3997 3641 3322 
Q 3641 2881 3436 2590 
Q 3231 2300 2841 2188 
z
M 1259 4147 
L 1259 2491 
L 2053 2491 
Q 2509 2491 2742 2702 
Q 2975 2913 2975 3322 
Q 2975 3731 2742 3939 
Q 2509 4147 2053 4147 
L 1259 4147 
z
" transform="scale(0.015625)"/>
       <path id="DejaVuSans-b2" d="M 838 2444 
L 2163 2444 
L 2163 2088 
L 294 2088 
L 294 2431 
Q 400 2528 597 2703 
Q 1672 3656 1672 3950 
Q 1672 4156 1509 4282 
Q 1347 4409 1081 4409 
Q 919 4409 728 4354 
Q 538 4300 313 4191 
L 313 4575 
Q 553 4663 761 4706 
Q 969 4750 1147 4750 
Q 1600 4750 1872 4544 
Q 2144 4338 2144 4000 
Q 2144 3566 1109 2678 
Q 934 2528 838 2444 
z
" transform="scale(0.015625)"/>
       <path id="DejaVuSans-33" d="M 2597 2516 
Q 3050 2419 3304 2112 
Q 3559 1806 3559 1356 
Q 3559 666 3084 287 
Q 2609 -91 1734 -91 
Q 1441 -91 1130 -33 
Q 819 25 488 141 
L 488 750 
Q 750 597 1062 519 
Q 1375 441 1716 441 
Q 2309 441 2620 675 
Q 2931 909 2931 1356 
Q 2931 1769 2642 2001 
Q 2353 2234 1838 2234 
L 1294 2234 
L 1294 2753 
L 1863 2753 
Q 2328 2753 2575 2939 
Q 2822 3125 2822 3475 
Q 2822 3834 2567 4026 
Q 2313 4219 1838 4219 
Q 1578 4219 1281 4162 
Q 984 4106 628 3988 
L 628 4550 
Q 988 4650 1302 4700 
Q 1616 4750 1894 4750 
Q 2613 4750 3031 4423 
Q 3450 4097 3450 3541 
Q 3450 3153 3228 2886 
Q 3006 2619 2597 2516 
z
" transform="scale(0.015625)"/>
       <path id="DejaVuSans-29" d="M 513 4856 
L 1013 4856 
Q 1481 4119 1714 3412 
Q 1947 2706 1947 2009 
Q 1947 1309 1714 600 
Q 1481 -109 1013 -844 
L 513 -844 
Q 928 -128 1133 580 
Q 1338 1288 1338 2009 
Q 1338 2731 1133 3434 
Q 928 4138 513 4856 
z
" transform="scale(0.015625)"/>
      </defs>
      <use xlink:href="#DejaVuSans-47"/>
      <use xlink:href="#DejaVuSans-61" transform="translate(77.490234 0)"/>
      <use xlink:href="#DejaVuSans-75" transform="translate(138.769531 0)"/>
      <use xlink:href="#DejaVuSans-73" transform="translate(202.148438 0)"/>
      <use xlink:href="#DejaVuSans-73" transform="translate(254.248047 0)"/>
      <use xlink:href="#DejaVuSans-69" transform="translate(306.347656 0)"/>
      <use xlink:href="#DejaVuSans-61" transform="translate(334.130859 0)"/>
      <use xlink:href="#DejaVuSans-6e" transform="translate(395.410156 0)"/>
      <use xlink:href="#DejaVuSans-20" transform="translate(458.789062 0)"/>
      <use xlink:href="#DejaVuSans-66" transform="translate(490.576172 0)"/>
      <use xlink:href="#DejaVuSans-69" transform="translate(525.78125 0)"/>
      <use xlink:href="#DejaVuSans-74" transform="translate(553.564453 0)"/>
      <use xlink:href="#DejaVuSans-20" transform="translate(592.773438 0)"/>
      <use xlink:href="#DejaVuSans-28" transform="translate(624.560547 0)"/>
      <use xlink:href="#DejaVuSans-52" transform="translate(663.574219 0)"/>
      <use xlink:href="#DejaVuSans-b2" transform="translate(733.056641 0)"/>
      <use xlink:href="#DejaVuSans-3d" transform="translate(773.144531 0)"/>
      <use xlink:href="#DejaVuSans-30" transform="translate(856.933594 0)"/>
      <use xlink:href="#DejaVuSans-2e" transform="translate(920.556641 0)"/>
      <use xlink:href="#DejaVuSans-39" transform="translate(952.34375 0)"/>
      <use xlink:href="#DejaVuSans-33" transform="translate(1015.966797 0)"/>
      <use xlink:href="#DejaVuSans-32" transform="translate(1079.589844 0)"/>
      <use xlink:href="#DejaVuSans-29" transform="translate(1143.212891 0)"/>
     </g>
    </g>
   </g>
  </g>
 </g>
 <defs>
  <clipPath id="p663237b16f">
   <rect x="50.87" y="10.8" width="442.33" height="307.24"/>
  </clipPath>
 </defs>
</svg>
